# xmcd
#
# Track frame offsets:
#	150
#	17280
#	34963
#
# Disc length: 759 seconds
#
# Revision: 0
# Processed by: cddbd v1.5.2PL0 Copyright (c) Steve Scherf et al.
# Submitted via: dBpowerAMP V4.0
#
DISCID=1702f503
DTITLE=Hanne Boel - No Love at All
DYEAR=1900
DGENRE=
TTITLE0=No Love at All
TTITLE1=Come Into my Garden
TTITLE2=Nighttime
EXTD=
EXTT0=
EXTT1=
EXTT2=
PLAYORDER=
